<svg width="125" height="23" viewBox="0 0 125 23" fill="none" xmlns="http://www.w3.org/2000/svg">
<path d="M7.223 17.908H14.167V22H1.922V0.237999H7.223V17.908ZM21.9964 4.485V8.887H29.0954V12.979H21.9964V17.753H30.0254V22H16.6954V0.237999H30.0254V4.485H21.9964ZM49.1219 0.237999V4.485H43.3559V22H38.0549V4.485H32.2889V0.237999H49.1219Z" fill="#FAF6FE"/>
<path d="M63.76 16.74C63.76 17.06 63.74 17.3933 63.7 17.74H55.96C56.0133 18.4333 56.2333 18.9667 56.62 19.34C57.02 19.7 57.5067 19.88 58.08 19.88C58.9333 19.88 59.5267 19.52 59.86 18.8H63.5C63.3133 19.5333 62.9733 20.1933 62.48 20.78C62 21.3667 61.3933 21.8267 60.66 22.16C59.9267 22.4933 59.1067 22.66 58.2 22.66C57.1067 22.66 56.1333 22.4267 55.28 21.96C54.4267 21.4933 53.76 20.8267 53.28 19.96C52.8 19.0933 52.56 18.08 52.56 16.92C52.56 15.76 52.7933 14.7467 53.26 13.88C53.74 13.0133 54.4067 12.3467 55.26 11.88C56.1133 11.4133 57.0933 11.18 58.2 11.18C59.28 11.18 60.24 11.4067 61.08 11.86C61.92 12.3133 62.5733 12.96 63.04 13.8C63.52 14.64 63.76 15.62 63.76 16.74ZM60.26 15.84C60.26 15.2533 60.06 14.7867 59.66 14.44C59.26 14.0933 58.76 13.92 58.16 13.92C57.5867 13.92 57.1 14.0867 56.7 14.42C56.3133 14.7533 56.0733 15.2267 55.98 15.84H60.26ZM64.8842 16.9C64.8842 15.7533 65.0976 14.7467 65.5242 13.88C65.9642 13.0133 66.5576 12.3467 67.3042 11.88C68.0509 11.4133 68.8842 11.18 69.8042 11.18C70.5909 11.18 71.2776 11.34 71.8642 11.66C72.4642 11.98 72.9242 12.4 73.2442 12.92V11.34H76.6642V22.5H73.2442V20.92C72.9109 21.44 72.4442 21.86 71.8442 22.18C71.2576 22.5 70.5709 22.66 69.7842 22.66C68.8776 22.66 68.0509 22.4267 67.3042 21.96C66.5576 21.48 65.9642 20.8067 65.5242 19.94C65.0976 19.06 64.8842 18.0467 64.8842 16.9ZM73.2442 16.92C73.2442 16.0667 73.0042 15.3933 72.5242 14.9C72.0576 14.4067 71.4842 14.16 70.8042 14.16C70.1242 14.16 69.5442 14.4067 69.0642 14.9C68.5976 15.38 68.3642 16.0467 68.3642 16.9C68.3642 17.7533 68.5976 18.4333 69.0642 18.94C69.5442 19.4333 70.1242 19.68 70.8042 19.68C71.4842 19.68 72.0576 19.4333 72.5242 18.94C73.0042 18.4467 73.2442 17.7733 73.2442 16.92ZM78.4584 16.92C78.4584 15.76 78.6918 14.7467 79.1584 13.88C79.6384 13.0133 80.2984 12.3467 81.1384 11.88C81.9918 11.4133 82.9651 11.18 84.0584 11.18C85.4584 11.18 86.6251 11.5467 87.5584 12.28C88.5051 13.0133 89.1251 14.0467 89.4184 15.38H85.7784C85.4718 14.5267 84.8784 14.1 83.9984 14.1C83.3718 14.1 82.8718 14.3467 82.4984 14.84C82.1251 15.32 81.9384 16.0133 81.9384 16.92C81.9384 17.8267 82.1251 18.5267 82.4984 19.02C82.8718 19.5 83.3718 19.74 83.9984 19.74C84.8784 19.74 85.4718 19.3133 85.7784 18.46H89.4184C89.1251 19.7667 88.5051 20.7933 87.5584 21.54C86.6118 22.2867 85.4451 22.66 84.0584 22.66C82.9651 22.66 81.9918 22.4267 81.1384 21.96C80.2984 21.4933 79.6384 20.8267 79.1584 19.96C78.6918 19.0933 78.4584 18.08 78.4584 16.92ZM98.1078 11.22C99.3878 11.22 100.414 11.6467 101.188 12.5C101.961 13.34 102.348 14.5 102.348 15.98V22.5H98.9478V16.44C98.9478 15.6933 98.7545 15.1133 98.3678 14.7C97.9811 14.2867 97.4611 14.08 96.8078 14.08C96.1545 14.08 95.6345 14.2867 95.2478 14.7C94.8611 15.1133 94.6678 15.6933 94.6678 16.44V22.5H91.2478V7.7H94.6678V12.84C95.0145 12.3467 95.4878 11.9533 96.0878 11.66C96.6878 11.3667 97.3611 11.22 98.1078 11.22ZM115.244 16.74C115.244 17.06 115.224 17.3933 115.184 17.74H107.444C107.498 18.4333 107.718 18.9667 108.104 19.34C108.504 19.7 108.991 19.88 109.564 19.88C110.418 19.88 111.011 19.52 111.344 18.8H114.984C114.798 19.5333 114.458 20.1933 113.964 20.78C113.484 21.3667 112.878 21.8267 112.144 22.16C111.411 22.4933 110.591 22.66 109.684 22.66C108.591 22.66 107.618 22.4267 106.764 21.96C105.911 21.4933 105.244 20.8267 104.764 19.96C104.284 19.0933 104.044 18.08 104.044 16.92C104.044 15.76 104.278 14.7467 104.744 13.88C105.224 13.0133 105.891 12.3467 106.744 11.88C107.598 11.4133 108.578 11.18 109.684 11.18C110.764 11.18 111.724 11.4067 112.564 11.86C113.404 12.3133 114.058 12.96 114.524 13.8C115.004 14.64 115.244 15.62 115.244 16.74ZM111.744 15.84C111.744 15.2533 111.544 14.7867 111.144 14.44C110.744 14.0933 110.244 13.92 109.644 13.92C109.071 13.92 108.584 14.0867 108.184 14.42C107.798 14.7533 107.558 15.2267 107.464 15.84H111.744ZM120.469 13.2C120.869 12.5867 121.369 12.1067 121.969 11.76C122.569 11.4 123.235 11.22 123.969 11.22V14.84H123.029C122.175 14.84 121.535 15.0267 121.109 15.4C120.682 15.76 120.469 16.4 120.469 17.32V22.5H117.049V11.34H120.469V13.2Z" fill="#FAF6FE"/>
</svg>
